<?xml version="1.0" encoding="utf-8"?><svg width="430" height="385" viewBox="0 0 430 385" xmlns="http://www.w3.org/2000/svg" xmlns:xlink="http://www.w3.org/1999/xlink"><svg width="8.5" height="5.656" viewBox="0 0 8.5 5.656" id="arrow" x="418.908" y="48" xmlns="http://www.w3.org/2000/svg"><defs><style>.acls-1{fill:#167ade;fill-rule:evenodd}</style></defs><path id="aselect_arrow_copy" data-name="select_arrow copy" class="acls-1" d="M746.243 191.171l-1.415-1.414-2.828 2.828-2.828-2.828-1.415 1.414 4.243 4.243z" transform="translate(-737.75 -189.75)"/></svg><svg width="17" height="16" viewBox="0 0 17 16" id="book" x="384.97" y="137.031" xmlns="http://www.w3.org/2000/svg"><defs><style>.bcls-1{fill:#fff;fill-rule:evenodd;opacity:.32}</style></defs><path class="bcls-1" d="M8.471 16.007a1.149 1.149 0 0 1-.836-.378c-.976-1.032-1.8-1.811-3.246-1.811-1.181 0-1.592.457-2.595 1.165a1.049 1.049 0 0 1-.605.2A1.278 1.278 0 0 1 0 13.831V3.639C0 1.622 1.948-.003 4.388-.003a4.472 4.472 0 0 1 4.114 2.582A4.46 4.46 0 0 1 12.608 0c2.441 0 4.388 1.625 4.388 3.642v10.272a1.416 1.416 0 0 1-.364.966 1.133 1.133 0 0 1-.826.381 1.058 1.058 0 0 1-.618-.2c-1.041-.75-1.446-1.235-2.581-1.235a4.118 4.118 0 0 0-3.3 1.8 1.109 1.109 0 0 1-.836.381zM4.5 11.519a2.957 2.957 0 0 1 1.594.44.653.653 0 0 0 .233.044.683.683 0 0 0 .66-.719V4.067a2.267 2.267 0 0 0-2.486-2.078 2.268 2.268 0 0 0-2.486 2.078v7.149a.752.752 0 0 0 .2.521.647.647 0 0 0 .472.207 7.509 7.509 0 0 1-.777-.04 8.2 8.2 0 0 1 2.59-.385zm8 0a2.958 2.958 0 0 1 1.6.44.648.648 0 0 0 .232.044.68.68 0 0 0 .658-.716v-7.22a2.267 2.267 0 0 0-2.486-2.078 2.267 2.267 0 0 0-2.486 2.078v7.146a.754.754 0 0 0 .2.523.645.645 0 0 0 .7.168 3.644 3.644 0 0 1 1.582-.385z"/></svg><svg width="16" height="16" viewBox="0 0 16 16" id="buble" x="401.97" y="137.031" xmlns="http://www.w3.org/2000/svg"><defs><style>.ccls-1{fill:#fff;fill-rule:evenodd;opacity:.32}</style></defs><path class="ccls-1" d="M.912 16A.911.911 0 0 1 0 15.088v-12.6A2.489 2.489 0 0 1 2.487 0h11.026A2.489 2.489 0 0 1 16 2.487v7.875a2.49 2.49 0 0 1-2.487 2.488H4.44l-2.883 2.883A.91.91 0 0 1 .912 16zM2.487 1.823a.664.664 0 0 0-.663.664v10.4l1.594-1.593a.916.916 0 0 1 .645-.267h9.451a.664.664 0 0 0 .663-.664V2.488a.664.664 0 0 0-.663-.664H2.487z"/></svg><svg width="16.969" height="18.031" viewBox="0 0 16.969 18.031" id="download" x="401.939" y="48" xmlns="http://www.w3.org/2000/svg"><defs><style>.dcls-1{fill:#fff;fill-rule:evenodd;opacity:.32}</style></defs><path class="dcls-1" d="M2.698 18.024a2.649 2.649 0 0 1-2.688-2.6v-2.4a1.034 1.034 0 0 1 2.067 0v2.4a.613.613 0 0 0 .622.6h11.582a.613.613 0 0 0 .621-.6v-2.4a1.034 1.034 0 0 1 2.067 0v2.4a2.649 2.649 0 0 1-2.688 2.6H2.698zm5.79-4.806a1.041 1.041 0 0 1-.731-.294l-3.309-3.2a.977.977 0 0 1 0-1.414 1.055 1.055 0 0 1 1.462 0l2.578 2.5 2.578-2.5a1.055 1.055 0 0 1 1.461 0 .977.977 0 0 1 0 1.414l-3.309 3.2a1.042 1.042 0 0 1-.729.294zm0 0a1.019 1.019 0 0 1-1.033-1V1.003a1.034 1.034 0 0 1 2.067 0v11.214a1.019 1.019 0 0 1-1.033 1.001z"/></svg><svg width="14" height="14" viewBox="0 0 14 14" id="filter" x="400.97" y="169.969" xmlns="http://www.w3.org/2000/svg"><defs><style>.ecls-1{fill:#167ade;fill-rule:evenodd}</style></defs><path id="eicon_copy" data-name="icon copy" class="ecls-1" d="M305 189h-12a1.162 1.162 0 0 1-1-.993 1.179 1.179 0 0 1 1-1.007h12a1.179 1.179 0 0 1 1 1.007 1.162 1.162 0 0 1-1 .993zm-10-4a3 3 0 1 1-3 3 3 3 0 0 1 3-3zm-2 12h12a1.161 1.161 0 0 0 1-.993 1.179 1.179 0 0 0-1-1.007h-12a1.179 1.179 0 0 0-1 1.007 1.161 1.161 0 0 0 1 .993zm10-4a3 3 0 1 1-3 3 3 3 0 0 1 3-3zm0 2a1 1 0 1 1-1 1 1 1 0 0 1 1-1zm-8-8a1 1 0 1 1-1 1 1 1 0 0 1 1-1z" transform="translate(-292 -185)"/></svg><svg width="18" height="16" viewBox="0 0 18 16" id="folder" x="402.97" y="84.031" xmlns="http://www.w3.org/2000/svg"><defs><style>.fcls-1{fill:#b2b2b2;fill-rule:evenodd}</style></defs><path id="ffolder" class="fcls-1" d="M290 230l1.661 1.489A2 2 0 0 0 293 232h7v9.669a.364.364 0 0 1-.382.331h-13.236a.364.364 0 0 1-.382-.331v-11.338a.364.364 0 0 1 .382-.331H290m.514-2h-4.136a2.359 2.359 0 0 0-2.378 2.331v11.338a2.359 2.359 0 0 0 2.382 2.331h13.236a2.36 2.36 0 0 0 2.382-2.331V232a1.8 1.8 0 0 0-2-2h-7l-1.877-1.683a.732.732 0 0 0-.605-.317z" transform="translate(-284 -228)"/></svg><svg width="18" height="18" viewBox="0 0 18 18" id="go" x="384.97" y="102.031" xmlns="http://www.w3.org/2000/svg"><defs><style>.gcls-1{fill:#338aff;fill-rule:evenodd}</style></defs><path id="ggo" class="gcls-1" d="M944.643 816.014a2.645 2.645 0 0 1-2.643-2.645V800.64a2.645 2.645 0 0 1 2.643-2.64h12.707a2.645 2.645 0 0 1 2.64 2.645v12.729a2.646 2.646 0 0 1-2.641 2.645h-12.706zm0-16.08a.706.706 0 0 0-.705.706v12.729a.705.705 0 0 0 .705.7h12.707a.705.705 0 0 0 .7-.7V800.64a.707.707 0 0 0-.7-.706h-12.707zm5.357 4.417l3.033 2.649-3.033 2.648v-5.3m-.3-2.348a1.72 1.72 0 0 0-1.134.423 1.64 1.64 0 0 0-.566 1.235v6.683a1.642 1.642 0 0 0 .566 1.236 1.732 1.732 0 0 0 2.267 0l5.167-4.512v-.131l-5.167-4.511A1.719 1.719 0 0 0 949.7 802z" transform="translate(-942 -798)"/></svg><svg width="16" height="17" viewBox="0 0 16 17" id="hash" x="402.97" y="102.031" xmlns="http://www.w3.org/2000/svg"><defs><style>.hcls-1{fill:#fff;fill-rule:evenodd;opacity:.32}</style></defs><path class="hcls-1" d="M.983 6.926a.941.941 0 1 1 0-1.88h14.024a.941.941 0 1 1 0 1.88H.983zm0 5.033a.941.941 0 1 1 0-1.88h14.024a.941.941 0 1 1 0 1.88H.983zm3.393 5.027a.951.951 0 0 1-.863-1.038L5.266.848a.967.967 0 0 1 .975-.837l.11.006a.989.989 0 0 1 .658.347.908.908 0 0 1 .21.692l-1.753 15.1a.966.966 0 0 1-.975.836zm5.26 0a.952.952 0 0 1-.864-1.038l1.753-15.1A.967.967 0 0 1 11.5.011l.109.006a.987.987 0 0 1 .659.348.906.906 0 0 1 .209.691l-1.753 15.1a.965.965 0 0 1-.975.836z"/></svg><svg width="16.969" height="18.031" viewBox="0 0 16.969 18.031" id="home" x="384.97" y="48" xmlns="http://www.w3.org/2000/svg"><defs><style>.icls-1{fill:#fff;fill-rule:evenodd;opacity:.32}</style></defs><path class="icls-1" d="M2.695 18.031a2.649 2.649 0 0 1-2.687-2.6V6.614a1 1 0 0 1 .4-.79L7.853.217a1.062 1.062 0 0 1 1.268 0l7.445 5.609a.994.994 0 0 1 .4.789v8.812a2.649 2.649 0 0 1-2.69 2.604H2.695zm-.621-2.6a.613.613 0 0 0 .621.6h11.581a.613.613 0 0 0 .621-.6V7.104L8.486 2.275 2.074 7.104v8.322zm8.893 2.6a1.018 1.018 0 0 1-1.033-1v-7.01h-2.9v7.01a1.034 1.034 0 0 1-2.066 0V9.017a1.018 1.018 0 0 1 1.033-1h4.964a1.019 1.019 0 0 1 1.034 1v8.014a1.018 1.018 0 0 1-1.032 1z"/></svg><svg width="18" height="18" viewBox="0 0 18 18" id="info" x="384.97" y="66.031" xmlns="http://www.w3.org/2000/svg"><defs><style>.jcls-1{fill:#e1e6eb;fill-rule:evenodd}</style></defs><path id="jShape_525_copy_13" data-name="Shape 525 copy 13" class="jcls-1" d="M916.643 913.014a2.645 2.645 0 0 1-2.643-2.645V897.64a2.645 2.645 0 0 1 2.643-2.64h12.707a2.645 2.645 0 0 1 2.64 2.645v12.729a2.646 2.646 0 0 1-2.641 2.645h-12.706zm0-16.079a.705.705 0 0 0-.705.705v12.729a.705.705 0 0 0 .705.7h12.707a.705.705 0 0 0 .7-.7V897.64a.706.706 0 0 0-.7-.705h-12.707zm5.351 7.07a1 1 0 1 1 2 0v2.981a1 1 0 1 1-2 0v-2.981zm0-3a1 1 0 1 1 2 0v-.019a1 1 0 1 1-2 0v.019zm.011 4a1 1 0 1 1 0-2h.981a1 1 0 1 1 0 2h-.981z" transform="translate(-914 -895)"/></svg><svg width="16" height="16" viewBox="0 0 16 16" id="lens" x="384.97" y="169.969" xmlns="http://www.w3.org/2000/svg"><defs><style>.kcls-1{fill:#fff;fill-rule:evenodd}</style></defs><path id="kShape_511_copy_3" data-name="Shape 511 copy 3" class="kcls-1" d="M263.023 150.988a.971.971 0 0 1-.689-.283l-2.752-2.747-.135.1a7.142 7.142 0 0 1-4.234 1.373 7.211 7.211 0 1 1 7.226-7.21 7.12 7.12 0 0 1-1.378 4.226l-.1.134 2.751 2.746a.974.974 0 0 1-.689 1.661zm-7.81-14.032a5.263 5.263 0 1 0 5.272 5.263 5.273 5.273 0 0 0-5.272-5.263z" transform="translate(-248 -135)"/></svg><svg viewBox="0 0 384.971 384.971" width="384.97" height="384.97" id="logout" xmlns="http://www.w3.org/2000/svg"><path d="M180.455 360.91H24.061V24.061h156.394c6.641 0 12.03-5.39 12.03-12.03s-5.39-12.03-12.03-12.03H12.03C5.39.001 0 5.39 0 12.031V372.94c0 6.641 5.39 12.03 12.03 12.03h168.424c6.641 0 12.03-5.39 12.03-12.03.001-6.641-5.389-12.03-12.029-12.03z"/><path d="M381.481 184.088l-83.009-84.2a11.942 11.942 0 0 0-17.011 0c-4.704 4.74-4.704 12.439 0 17.179l62.558 63.46H96.279c-6.641 0-12.03 5.438-12.03 12.151s5.39 12.151 12.03 12.151h247.74l-62.558 63.46c-4.704 4.752-4.704 12.439 0 17.179a11.931 11.931 0 0 0 17.011 0l82.997-84.2c4.644-4.68 4.692-12.512.012-17.18z"/></svg><svg width="18" height="18" viewBox="0 0 18 18" id="minus" x="402.97" y="66.031" xmlns="http://www.w3.org/2000/svg"><defs><style>.mcls-1{fill:#b2b2b2;fill-rule:evenodd}</style></defs><path id="mShape_525_copy" data-name="Shape 525 copy" class="mcls-1" d="M944.643 152.014a2.645 2.645 0 0 1-2.643-2.645V136.64a2.646 2.646 0 0 1 2.641-2.646h12.709a2.646 2.646 0 0 1 2.64 2.646v12.729a2.646 2.646 0 0 1-2.641 2.645h-12.706zm0-16.079a.705.705 0 0 0-.705.7v12.729a.705.705 0 0 0 .705.705h12.707a.705.705 0 0 0 .7-.705V136.64a.705.705 0 0 0-.7-.7h-12.707zm3.362 8.071a1 1 0 1 1 0-2h5.981a1 1 0 1 1 0 2h-5.981z" transform="translate(-942 -134)"/></svg><svg width="45" height="48" viewBox="0 0 45 48" id="paper" x="384.97" xmlns="http://www.w3.org/2000/svg"><defs><style>.ncls-1{fill:#fff;fill-rule:evenodd;filter:url(#nfilter)}</style><filter id="nfilter" x="9" y="232" width="45" height="48" filterUnits="userSpaceOnUse"><feOffset result="offset" dy="4" in="SourceAlpha"/><feGaussianBlur result="blur" stdDeviation="4"/><feFlood result="flood" flood-opacity=".16"/><feComposite result="composite" operator="in" in2="blur"/><feBlend result="blend" in="SourceGraphic"/></filter></defs><path id="nShape_546_copy_5" data-name="Shape 546 copy 5" class="ncls-1" d="M26.474 260.015a2.482 2.482 0 0 1-2.48-2.478v-12.064a2.481 2.481 0 0 1 2.48-2.473h5.284a.96.96 0 0 1 .687.284l5.284 5.278a.974.974 0 0 1 .284.686v8.293a2.482 2.482 0 0 1-2.48 2.478h-9.059zm0-15.079a.538.538 0 0 0-.538.537v12.064a.539.539 0 0 0 .538.538h9.058a.539.539 0 0 0 .538-.538v-7.892l-4.715-4.709h-4.881zm5.284 5.277a.971.971 0 0 1-.971-.969v-5.279a.971.971 0 0 1 1.942 0v4.308h4.313a.97.97 0 1 1 0 1.94h-5.284z" transform="translate(-9 -232)"/></svg><svg width="17" height="17" viewBox="0 0 17 17" id="pen" x="401.97" y="120.031" xmlns="http://www.w3.org/2000/svg"><defs><style>.ocls-1{fill:#e1e6eb;fill-rule:evenodd;opacity:.32}</style></defs><path id="oShape_519_copy_6" data-name="Shape 519 copy 6" class="ocls-1" d="M25.554 667a2.567 2.567 0 0 1-2.568-2.562v-10.917a2.568 2.568 0 0 1 2.568-2.563h4.172a1 1 0 1 1 0 2.007h-4.172a.558.558 0 0 0-.558.556v10.918a.558.558 0 0 0 .558.556h10.937a.558.558 0 0 0 .558-.556v-4.165a1.005 1.005 0 0 1 2.01 0v4.165A2.567 2.567 0 0 1 36.491 667H25.554zm3.117-4.722a.954.954 0 0 1-.954-.952v-2.961a.949.949 0 0 1 .283-.672l7.415-7.4a.955.955 0 0 1 1.349 0l2.966 2.961a.95.95 0 0 1 0 1.346l-7.418 7.4a.96.96 0 0 1-.675.278h-2.966zm2.571-1.9l6.46-6.449-1.616-1.614-6.461 6.449v1.614h1.617z" transform="translate(-23 -650)"/></svg><svg width="16.969" height="16.938" viewBox="0 0 16.969 16.938" id="person" x="384.97" y="153.031" xmlns="http://www.w3.org/2000/svg"><defs><style>.pcls-1{fill:#fff;fill-rule:evenodd;opacity:.32}</style></defs><path class="pcls-1" d="M15.999 16.953a.969.969 0 0 1-.968-.966v-.833c0-1.7-3.056-3.2-6.54-3.2s-6.54 1.493-6.54 3.2v.833a.968.968 0 0 1-1.936 0v-.833c0-2.876 3.723-5.13 8.477-5.13s8.476 2.254 8.476 5.13v.833a.969.969 0 0 1-.969.966zm-7.48-8.361a4.3 4.3 0 0 1 .008-8.6 4.323 4.323 0 0 1 .632.047 4.3 4.3 0 0 1 0 8.5 4.475 4.475 0 0 1-.64.053zm.008-6.662a2.241 2.241 0 0 0-.347.026 2.364 2.364 0 0 0 .341 4.7 2.363 2.363 0 0 0 .353-4.7 2.25 2.25 0 0 0-.347-.026z"/></svg><svg width="18" height="18" viewBox="0 0 18 18" id="plus" x="384.97" y="84.031" xmlns="http://www.w3.org/2000/svg"><defs id="qdefs4507"><style id="qstyle4505">.qcls-1{fill:#b2b2b2;fill-rule:evenodd}</style><clipPath id="qclipPath5075"><path d="M946.989 141.996h7.995v2.009h-7.995z" id="qpath5077" opacity=".341" fill="#fff"/></clipPath><style id="qstyle5081">.qcls-1{fill:#b2b2b2;fill-rule:evenodd}</style></defs><path id="qShape_525_copy" data-name="Shape 525 copy" class="qcls-1" d="M944.643 152.014a2.645 2.645 0 0 1-2.643-2.645V136.64a2.646 2.646 0 0 1 2.641-2.646h12.709a2.646 2.646 0 0 1 2.64 2.646v12.729a2.646 2.646 0 0 1-2.641 2.645zm0-16.079a.705.705 0 0 0-.705.7v12.729a.705.705 0 0 0 .705.705h12.707a.705.705 0 0 0 .7-.705V136.64a.705.705 0 0 0-.7-.7h-12.707zm3.362 8.071a1 1 0 1 1 0-2h5.981a1 1 0 1 1 0 2z" transform="rotate(90 547.008 -395.036)" clip-path="url(#qclipPath5075)" fill="#b2b2b2" fill-rule="evenodd"/><path d="M2.641 18.03a2.645 2.645 0 0 1-2.643-2.645V2.656A2.646 2.646 0 0 1 2.64.01h12.71a2.646 2.646 0 0 1 2.64 2.646v12.73a2.646 2.646 0 0 1-2.642 2.644zm0-16.079a.705.705 0 0 0-.705.7v12.73a.705.705 0 0 0 .705.704h12.707a.705.705 0 0 0 .7-.705V2.656a.705.705 0 0 0-.7-.7H2.641zm3.362 8.071a1 1 0 1 1 0-2h5.981a1 1 0 1 1 0 2z" class="qcls-1" data-name="Shape 525 copy" id="qShape_525_copy-5" fill="#b2b2b2" fill-rule="evenodd"/></svg><svg width="17" height="17" viewBox="0 0 17 17" id="puzzle" x="384.97" y="120.031" xmlns="http://www.w3.org/2000/svg"><defs><style>.rcls-1{fill:#fff;fill-rule:evenodd;opacity:.32}</style></defs><path class="rcls-1" d="M12.5 17H9a1.5 1.5 0 0 1-1.5-1.473A1.5 1.5 0 0 1 6 17H1.5A1.5 1.5 0 0 1 0 15.5V11a1.5 1.5 0 0 1 1.473-1.5A1.5 1.5 0 0 1 0 8V4.5A1.5 1.5 0 0 1 1.5 3h3a3 3 0 0 1 6 0h2A1.5 1.5 0 0 1 14 4.5v2a3 3 0 0 1 0 6v3a1.5 1.5 0 0 1-1.5 1.5zm-3-2H12v-4.5h2a1 1 0 0 0 0-2h-2V5H8.5V3a1 1 0 0 0-2 0v2H2v2.5h1a2 2 0 1 1 0 4H2V15h3.5v-1a2 2 0 1 1 4 0v1z"/></svg><svg width="16" height="16" viewBox="0 0 16 16" id="window" x="401.939" y="153.031" xmlns="http://www.w3.org/2000/svg"><defs><style>.scls-1{fill:#fff;fill-rule:evenodd;opacity:.32}</style></defs><path id="sShape_552_copy" data-name="Shape 552 copy" class="scls-1" d="M25.487 555A2.49 2.49 0 0 1 23 552.513v-11.026A2.489 2.489 0 0 1 25.487 539h11.026A2.489 2.489 0 0 1 39 541.487v11.026A2.49 2.49 0 0 1 36.513 555H25.487zm.167-13.989a.643.643 0 0 0-.643.643v10.692a.644.644 0 0 0 .643.643h10.692a.644.644 0 0 0 .643-.643v-10.692a.644.644 0 0 0-.643-.643H25.654zm-1.742 4.975a.993.993 0 0 1 0-1.979h14.176a.993.993 0 0 1 0 1.979H23.912zM29 555a.944.944 0 0 1-.989-.89v-9.21a.995.995 0 0 1 1.978 0v9.214A.944.944 0 0 1 29 555z" transform="translate(-23 -539)"/></svg></svg>