<svg xmlns="http://www.w3.org/2000/svg" width="17" height="16" viewBox="0 0 17 16">
  <defs>
    <style>
      .cls-1 {
        fill: #fff;
        fill-rule: evenodd;
        opacity: 0.32;
      }
    </style>
  </defs>
  <path class="cls-1" d="M31.471,499.007a1.149,1.149,0,0,1-.836-0.378c-0.976-1.032-1.8-1.811-3.246-1.811-1.181,0-1.592.457-2.595,1.165a1.049,1.049,0,0,1-.605.2A1.278,1.278,0,0,1,23,496.831V486.639c0-2.017,1.948-3.642,4.388-3.642a4.472,4.472,0,0,1,4.114,2.582A4.46,4.46,0,0,1,35.608,483c2.441,0,4.388,1.625,4.388,3.642v10.272a1.416,1.416,0,0,1-.364.966,1.133,1.133,0,0,1-.826.381h0a1.058,1.058,0,0,1-.618-0.2c-1.041-.75-1.446-1.235-2.581-1.235a4.118,4.118,0,0,0-3.3,1.8A1.109,1.109,0,0,1,31.471,499.007ZM27.5,494.519a2.957,2.957,0,0,1,1.594.44,0.653,0.653,0,0,0,.233.044,0.683,0.683,0,0,0,.66-0.719v-7.217a2.267,2.267,0,0,0-2.486-2.078,2.268,2.268,0,0,0-2.486,2.078v7.149a0.752,0.752,0,0,0,.2.521,0.647,0.647,0,0,0,.472.207,7.509,7.509,0,0,1-.777-0.04A8.2,8.2,0,0,1,27.5,494.519Zm8,0a2.958,2.958,0,0,1,1.6.44,0.648,0.648,0,0,0,.232.044,0.68,0.68,0,0,0,.658-0.716v-7.22a2.267,2.267,0,0,0-2.486-2.078,2.267,2.267,0,0,0-2.486,2.078v7.146a0.754,0.754,0,0,0,.2.523,0.645,0.645,0,0,0,.7.168A3.644,3.644,0,0,1,35.5,494.519Z" transform="translate(-23 -483)"/>
</svg>
