<svg xmlns="http://www.w3.org/2000/svg" width="16.969" height="18.031" viewBox="0 0 16.969 18.031">
  <defs>
    <style>
      .cls-1 {
        fill: #fff;
        fill-rule: evenodd;
        opacity: 0.32;
      }
    </style>
  </defs>
  <path class="cls-1" d="M25.417,322.962a2.649,2.649,0,0,1-2.688-2.6v-2.4a1.034,1.034,0,0,1,2.067,0v2.4a0.613,0.613,0,0,0,.622.6H37a0.613,0.613,0,0,0,.621-0.6v-2.4a1.034,1.034,0,0,1,2.067,0v2.4a2.649,2.649,0,0,1-2.688,2.6H25.417Zm5.79-4.806a1.041,1.041,0,0,1-.731-0.294l-3.309-3.2a0.977,0.977,0,0,1,0-1.414,1.055,1.055,0,0,1,1.462,0l2.578,2.5,2.578-2.5a1.055,1.055,0,0,1,1.461,0,0.977,0.977,0,0,1,0,1.414l-3.309,3.2A1.042,1.042,0,0,1,31.208,318.156Zm0,0a1.019,1.019,0,0,1-1.033-1V305.941a1.034,1.034,0,0,1,2.067,0v11.214A1.019,1.019,0,0,1,31.208,318.156Z" transform="translate(-22.719 -304.938)"/>
</svg>
