<svg xmlns="http://www.w3.org/2000/svg" width="14" height="14" viewBox="0 0 14 14">
  <defs>
    <style>
      .cls-1 {
        fill: #167ade;
        fill-rule: evenodd;
      }
    </style>
  </defs>
  <path id="icon_copy" data-name="icon copy" class="cls-1" d="M305,189H293a1.162,1.162,0,0,1-1-.993A1.179,1.179,0,0,1,293,187h12a1.179,1.179,0,0,1,1,1.007A1.162,1.162,0,0,1,305,189Zm-10-4a3,3,0,1,1-3,3A3,3,0,0,1,295,185Zm-2,12h12a1.161,1.161,0,0,0,1-.993A1.179,1.179,0,0,0,305,195H293a1.179,1.179,0,0,0-1,1.007A1.161,1.161,0,0,0,293,197Zm10-4a3,3,0,1,1-3,3A3,3,0,0,1,303,193Zm0,2a1,1,0,1,1-1,1A1,1,0,0,1,303,195Zm-8-8a1,1,0,1,1-1,1A1,1,0,0,1,295,187Z" transform="translate(-292 -185)"/>
</svg>
