<svg xmlns="http://www.w3.org/2000/svg" width="18" height="18" viewBox="0 0 18 18">
  <defs>
    <style>
      .cls-1 {
        fill: #338aff;
        fill-rule: evenodd;
      }
    </style>
  </defs>
  <path id="go" class="cls-1" d="M944.643,816.014A2.645,2.645,0,0,1,942,813.369V800.64A2.645,2.645,0,0,1,944.643,798H957.35a2.645,2.645,0,0,1,2.64,2.645v12.729a2.646,2.646,0,0,1-2.641,2.645H944.643Zm0-16.08a0.706,0.706,0,0,0-.705.706v12.729a0.705,0.705,0,0,0,.705.7H957.35a0.705,0.705,0,0,0,.7-0.7V800.64a0.707,0.707,0,0,0-.7-0.706H944.643ZM950,804.351L953.033,807,950,809.648v-5.3M949.7,802a1.72,1.72,0,0,0-1.134.423,1.64,1.64,0,0,0-.566,1.235v6.683a1.642,1.642,0,0,0,.566,1.236,1.732,1.732,0,0,0,2.267,0L956,807.065v-0.131l-5.167-4.511A1.719,1.719,0,0,0,949.7,802h0Z" transform="translate(-942 -798)"/>
</svg>
