<svg xmlns="http://www.w3.org/2000/svg" width="16" height="17" viewBox="0 0 16 17">
  <defs>
    <style>
      .cls-1 {
        fill: #fff;
        fill-rule: evenodd;
        opacity: 0.32;
      }
    </style>
  </defs>
  <path class="cls-1" d="M23.983,433.926a0.941,0.941,0,1,1,0-1.88H38.007a0.941,0.941,0,1,1,0,1.88H23.983Zm0,5.033a0.941,0.941,0,1,1,0-1.88H38.007a0.941,0.941,0,1,1,0,1.88H23.983Zm3.393,5.027a0.951,0.951,0,0,1-.863-1.038l1.753-15.1a0.967,0.967,0,0,1,.975-0.837l0.11,0.006a0.989,0.989,0,0,1,.658.347,0.908,0.908,0,0,1,.21.692l-1.753,15.1a0.966,0.966,0,0,1-.975.836Zm5.26,0a0.952,0.952,0,0,1-.864-1.038l1.753-15.1a0.967,0.967,0,0,1,.975-0.837l0.109,0.006a0.987,0.987,0,0,1,.659.348,0.906,0.906,0,0,1,.209.691l-1.753,15.1a0.965,0.965,0,0,1-.975.836Z" transform="translate(-23 -427)"/>
</svg>
