<svg xmlns="http://www.w3.org/2000/svg" width="18" height="18" viewBox="0 0 18 18">
  <defs>
    <style>
      .cls-1 {
        fill: #e1e6eb;
        fill-rule: evenodd;
      }
    </style>
  </defs>
  <path id="Shape_525_copy_13" data-name="Shape 525 copy 13" class="cls-1" d="M916.643,913.014A2.645,2.645,0,0,1,914,910.369V897.64A2.645,2.645,0,0,1,916.643,895H929.35a2.645,2.645,0,0,1,2.64,2.645v12.729a2.646,2.646,0,0,1-2.641,2.645H916.643Zm0-16.079a0.705,0.705,0,0,0-.705.705v12.729a0.705,0.705,0,0,0,.705.7H929.35a0.705,0.705,0,0,0,.7-0.7V897.64a0.706,0.706,0,0,0-.7-0.705H916.643Zm5.351,7.07a1,1,0,1,1,2,0v2.981a1,1,0,1,1-2,0v-2.981Zm0-3a1,1,0,1,1,2,0v-0.019a1,1,0,1,1-2,0v0.019Zm0.011,4a1,1,0,1,1,0-2h0.981a1,1,0,1,1,0,2h-0.981Z" transform="translate(-914 -895)"/>
</svg>
