<svg xmlns="http://www.w3.org/2000/svg" width="18" height="18" viewBox="0 0 18 18">
  <defs>
    <style>
      .cls-1 {
        fill: #b2b2b2;
        fill-rule: evenodd;
      }
    </style>
  </defs>
  <path id="Shape_525_copy" data-name="Shape 525 copy" class="cls-1" d="M944.643,152.014A2.645,2.645,0,0,1,942,149.369V136.64a2.646,2.646,0,0,1,2.641-2.646H957.35a2.646,2.646,0,0,1,2.64,2.646v12.729a2.646,2.646,0,0,1-2.641,2.645H944.643Zm0-16.079a0.705,0.705,0,0,0-.705.7v12.729a0.705,0.705,0,0,0,.705.705H957.35a0.705,0.705,0,0,0,.7-0.705V136.64a0.705,0.705,0,0,0-.7-0.7H944.643Zm3.362,8.071a1,1,0,1,1,0-2h5.981a1,1,0,1,1,0,2h-5.981Z" transform="translate(-942 -134)"/>
</svg>
