<svg xmlns="http://www.w3.org/2000/svg" width="17" height="17" viewBox="0 0 17 17">
  <defs>
    <style>
      .cls-1 {
        fill: #e1e6eb;
        fill-rule: evenodd;
        opacity: 0.32;
      }
    </style>
  </defs>
  <path id="Shape_519_copy_6" data-name="Shape 519 copy 6" class="cls-1" d="M25.554,667a2.567,2.567,0,0,1-2.568-2.562V653.521a2.568,2.568,0,0,1,2.568-2.563h4.172a1,1,0,1,1,0,2.007H25.554a0.558,0.558,0,0,0-.558.556v10.918a0.558,0.558,0,0,0,.558.556H36.491a0.558,0.558,0,0,0,.558-0.556v-4.165a1.005,1.005,0,0,1,2.01,0v4.165A2.567,2.567,0,0,1,36.491,667H25.554Zm3.117-4.722a0.954,0.954,0,0,1-.954-0.952v-2.961A0.949,0.949,0,0,1,28,657.693l7.415-7.4a0.955,0.955,0,0,1,1.349,0l2.966,2.961a0.95,0.95,0,0,1,0,1.346L32.312,662a0.96,0.96,0,0,1-.675.278H28.671Zm2.571-1.9,6.46-6.449-1.616-1.614-6.461,6.449v1.614h1.617Z" transform="translate(-23 -650)"/>
</svg>
