<svg xmlns="http://www.w3.org/2000/svg" width="16.969" height="16.938" viewBox="0 0 16.969 16.938">
  <defs>
    <style>
      .cls-1 {
        fill: #fff;
        fill-rule: evenodd;
        opacity: 0.32;
      }
    </style>
  </defs>
  <path class="cls-1" d="M38.718,611.734a0.969,0.969,0,0,1-.968-0.966v-0.833c0-1.7-3.056-3.2-6.54-3.2s-6.54,1.493-6.54,3.2v0.833a0.968,0.968,0,0,1-1.936,0v-0.833c0-2.876,3.723-5.13,8.477-5.13s8.476,2.254,8.476,5.13v0.833A0.969,0.969,0,0,1,38.718,611.734Zm-7.48-8.361a4.3,4.3,0,0,1,.008-8.6,4.323,4.323,0,0,1,.632.047,4.3,4.3,0,0,1,0,8.5A4.475,4.475,0,0,1,31.238,603.373Zm0.008-6.662a2.241,2.241,0,0,0-.347.026,2.364,2.364,0,0,0,.341,4.7,2.363,2.363,0,0,0,.353-4.7A2.25,2.25,0,0,0,31.246,596.711Z" transform="translate(-22.719 -594.781)"/>
</svg>
