<svg xmlns="http://www.w3.org/2000/svg" width="17" height="17" viewBox="0 0 17 17">
  <defs>
    <style>
      .cls-1 {
        fill: #fff;
        fill-rule: evenodd;
        opacity: 0.32;
      }
    </style>
  </defs>
  <path class="cls-1" d="M35.5,203H32a1.5,1.5,0,0,1-1.5-1.473A1.5,1.5,0,0,1,29,203H24.5a1.5,1.5,0,0,1-1.5-1.5V197a1.5,1.5,0,0,1,1.473-1.5A1.5,1.5,0,0,1,23,194v-3.5a1.5,1.5,0,0,1,1.5-1.5h3a3,3,0,0,1,6,0h2a1.5,1.5,0,0,1,1.5,1.5v2a3,3,0,0,1,0,6h0v3A1.5,1.5,0,0,1,35.5,203Zm-3-2H35v-4.5h2a1,1,0,0,0,0-2H35V191H31.5v-2a1,1,0,0,0-2,0v2H25v2.5h1a2,2,0,1,1,0,4H25V201h3.5v-1a2,2,0,1,1,4,0v1Z" transform="translate(-23 -186)"/>
</svg>
