<svg xmlns="http://www.w3.org/2000/svg" width="16" height="16" viewBox="0 0 16 16">
  <defs>
    <style>
      .cls-1 {
        fill: #fff;
        fill-rule: evenodd;
        opacity: 0.32;
      }
    </style>
  </defs>
  <path id="Shape_552_copy" data-name="Shape 552 copy" class="cls-1" d="M25.487,555A2.49,2.49,0,0,1,23,552.513V541.487A2.489,2.489,0,0,1,25.487,539H36.513A2.489,2.489,0,0,1,39,541.487v11.026A2.49,2.49,0,0,1,36.513,555H25.487Zm0.167-13.989a0.643,0.643,0,0,0-.643.643v10.692a0.644,0.644,0,0,0,.643.643H36.346a0.644,0.644,0,0,0,.643-0.643V541.654a0.644,0.644,0,0,0-.643-0.643H25.654Zm-1.742,4.975a0.993,0.993,0,0,1,0-1.979H38.088a0.993,0.993,0,0,1,0,1.979H23.912ZM29,555a0.944,0.944,0,0,1-.989-0.89V544.9a0.995,0.995,0,0,1,1.978,0v9.214A0.944,0.944,0,0,1,29,555Z" transform="translate(-23 -539)"/>
</svg>
